Coordinates
version=1
nRows=14
nColumns=40
inDegrees=yes

Units are S.I. units (second, meters, Newtons, ...)
If the header above contains a line with 'inDegrees', this indicates whether rotational values are in degrees (yes) or radians (no).

endheader
time	pelvis_tilt	pelvis_list	pelvis_rotation	pelvis_tx	pelvis_ty	pelvis_tz	hip_flexion_r	hip_adduction_r	hip_rotation_r	knee_angle_r	knee_angle_r_beta	ankle_angle_r	subtalar_angle_r	mtp_angle_r	hip_flexion_l	hip_adduction_l	hip_rotation_l	knee_angle_l	knee_angle_l_beta	ankle_angle_l	subtalar_angle_l	mtp_angle_l	lumbar_extension	lumbar_bending	lumbar_rotation	arm_flex_r	arm_add_r	arm_rot_r	elbow_flex_r	pro_sup_r	wrist_flex_r	wrist_dev_r	arm_flex_l	arm_add_l	arm_rot_l	elbow_flex_l	pro_sup_l	wrist_flex_l	wrist_dev_l
      2.62500000	    -20.65913459	     -5.11696542	     -1.80010708	     -0.33201765	      0.82157074	     -0.98562288	     29.45288181	     -5.67289986	      9.77999573	     90.84159658	      1.58548496	    -19.44842811	      0.00000000	      0.00000000	     62.49942538	     -6.70252045	     -3.60905785	     70.29299207	      1.22684415	     15.81146482	      0.00000000	      0.00000000	    -11.79430399	     -6.52140746	     10.24244810	     76.58635549	     -6.74070961	     20.66509964	     79.81862004	     79.53719299	      0.00000000	      0.00000000	     84.25775173	    -13.46357792	     35.82402900	     75.46595919	     71.88771343	      0.00000000	      0.00000000
      2.63000000	    -20.61610344	     -5.17346876	     -1.79812702	     -0.33255243	      0.82099373	     -0.98538340	     29.38665382	     -5.47228633	      9.81872835	     90.93437807	      1.58710430	    -19.11617931	      0.00000000	      0.00000000	     62.64332569	     -6.73244959	     -3.45465732	     70.51745615	      1.23076179	     15.57561007	      0.00000000	      0.00000000	    -11.98334540	     -6.50110238	     10.19640562	     76.77668733	     -6.68970468	     20.90638006	     79.71475290	     76.86180879	      0.00000000	      0.00000000	     84.37763067	    -13.55381062	     36.11628509	     75.63273440	     69.08407087	      0.00000000	      0.00000000
      2.63500000	    -20.65782813	     -5.13095528	     -1.82020124	     -0.33274040	      0.82001569	     -0.98530351	     29.39371396	     -5.47097347	      9.92037080	     90.89903016	      1.58648736	    -19.30284211	      0.00000000	      0.00000000	     62.79735633	     -6.76847072	     -3.56329555	     70.72857942	      1.23444659	     15.77998952	      0.00000000	      0.00000000	    -12.01417224	     -6.55083700	     10.16744877	     76.80873055	     -6.67009064	     21.03247130	     79.71687979	     75.11420370	      0.00000000	      0.00000000	     84.39452766	    -13.61333131	     36.21367295	     75.71013865	     67.67668036	      0.00000000	      0.00000000
      2.64000000	    -20.68193231	     -5.01405611	     -1.78935397	     -0.33285111	      0.81915714	     -0.98541540	     29.40661811	     -5.65318806	      9.92368318	     90.87774751	      1.58611591	    -19.56569645	      0.00000000	      0.00000000	     62.86497771	     -6.68266236	     -3.69652490	     70.82588059	      1.23614481	     16.04273756	      0.00000000	      0.00000000	    -12.05959861	     -6.70749984	     10.20518069	     76.70061886	     -6.74144783	     20.58650243	     79.83387733	     79.37037165	      0.00000000	      0.00000000	     84.39682772	    -13.33341428	     35.81696449	     75.33962930	     71.65802731	      0.00000000	      0.00000000
      2.64500000	    -20.70098969	     -4.98540324	     -1.75086529	     -0.33296931	      0.81837020	     -0.98549994	     29.36641135	     -5.68901568	      9.89692278	     90.88017598	      1.58615830	    -19.46297806	      0.00000000	      0.00000000	     62.97150204	     -6.63966585	     -3.72194673	     70.95149791	      1.23833725	     16.06979719	      0.00000000	      0.00000000	    -12.12612558	     -6.72966839	     10.15428356	     76.70636039	     -6.71954984	     20.54865541	     79.81099586	     79.12859036	      0.00000000	      0.00000000	     84.35152616	    -13.33396307	     35.76740494	     75.43274651	     71.48824081	      0.00000000	      0.00000000
      2.65000000	    -20.73629374	     -4.98102716	     -1.76212753	     -0.33319888	      0.81748603	     -0.98532810	     29.37456001	     -5.66739002	      9.93472406	     90.93419544	      1.58710111	    -19.34846741	      0.00000000	      0.00000000	     63.12128039	     -6.69374812	     -3.77315462	     71.13941651	      1.24161705	     16.20772548	      0.00000000	      0.00000000	    -12.16682894	     -6.75922882	     10.13159238	     76.74561698	     -6.67023392	     20.60348970	     79.76063275	     79.68207897	      0.00000000	      0.00000000	     84.41201209	    -13.36561568	     35.78911945	     75.35093884	     71.99384308	      0.00000000	      0.00000000
      2.65500000	    -20.77414020	     -5.03231750	     -1.79374799	     -0.33347624	      0.81668837	     -0.98515838	     29.37914920	     -5.54583486	      9.95952151	     90.92469022	      1.58693522	    -19.38410472	      0.00000000	      0.00000000	     63.28544646	     -6.80480480	     -3.79499227	     71.32644370	      1.24488129	     16.26195530	      0.00000000	      0.00000000	    -12.20919249	     -6.71876877	     10.14161439	     76.76996138	     -6.60991028	     20.52538145	     79.67446372	     79.65271232	      0.00000000	      0.00000000	     84.42874602	    -13.38927562	     35.80017737	     75.35050031	     72.27245378	      0.00000000	      0.00000000
      2.66000000	    -20.79561150	     -4.94921343	     -1.82882552	     -0.33365088	      0.81585156	     -0.98518672	     29.37607906	     -5.61079187	     10.05410628	     90.91775373	      1.58681415	    -19.35372527	      0.00000000	      0.00000000	     63.45189637	     -6.72827409	     -3.74416716	     71.54372813	      1.24867362	     16.26374945	      0.00000000	      0.00000000	    -12.27470979	     -6.81710577	     10.15034032	     76.80400499	     -6.59231561	     20.53233114	     79.68923518	     79.41751193	      0.00000000	      0.00000000	     84.40105069	    -13.35873450	     35.67418133	     75.37557256	     72.09134911	      0.00000000	      0.00000000
      2.66500000	    -20.90227340	     -5.01872964	     -1.86912386	     -0.33387192	      0.81484145	     -0.98512695	     29.39625022	     -5.44504796	     10.20666245	     90.81211557	      1.58497042	    -19.32702436	      0.00000000	      0.00000000	     63.74522132	     -6.75874562	     -3.58816683	     71.82770029	      1.25362986	     16.22314547	      0.00000000	      0.00000000	    -12.23046860	     -6.72846086	     10.12703331	     76.88696105	     -6.58240357	     20.90695496	     79.56417802	     76.69491537	      0.00000000	      0.00000000	     84.42301650	    -13.51087718	     35.91880578	     75.52656653	     69.57824816	      0.00000000	      0.00000000
      2.67000000	    -20.88986510	     -4.97888110	     -1.91022358	     -0.33413527	      0.81406191	     -0.98501534	     29.39624097	     -5.48838654	     10.23361921	     90.85873128	      1.58578402	    -19.63975754	      0.00000000	      0.00000000	     63.79628964	     -6.79756396	     -3.69155675	     71.97147127	      1.25613914	     16.31370042	      0.00000000	      0.00000000	    -12.32458207	     -6.79880642	     10.19145589	     76.88635768	     -6.57613007	     20.79597500	     79.63645768	     76.70467520	      0.00000000	      0.00000000	     84.45041839	    -13.42130650	     35.89332488	     75.44336915	     69.58258914	      0.00000000	      0.00000000
      2.67500000	    -21.02051535	     -5.01884462	     -1.89729652	     -0.33388988	      0.81300054	     -0.98516468	     29.43505422	     -5.47266140	     10.12999485	     90.78549272	      1.58450576	    -19.60324334	      0.00000000	      0.00000000	     64.01358337	     -6.78390972	     -3.64175216	     72.15741052	      1.25938439	     16.49775760	      0.00000000	      0.00000000	    -12.20518404	     -6.74701016	     10.21275112	     76.73687403	     -6.59178134	     20.54664919	     79.66591916	     79.76782216	      0.00000000	      0.00000000	     84.32132463	    -13.31433602	     35.60947926	     75.32389649	     72.42461115	      0.00000000	      0.00000000
      2.68000000	    -21.03737523	     -5.04628373	     -1.95586458	     -0.33406036	      0.81215739	     -0.98496617	     29.47448656	     -5.35830596	     10.07643662	     90.95378185	      1.58744296	    -19.46723569	      0.00000000	      0.00000000	     64.17047471	     -6.84801800	     -3.61634369	     72.37207324	      1.26313096	     16.66308509	      0.00000000	      0.00000000	    -12.26042792	     -6.74432003	     10.25236118	     76.78924135	     -6.55098344	     20.58128740	     79.62326776	     79.36040501	      0.00000000	      0.00000000	     84.33597606	    -13.31247639	     35.58516912	     75.29447337	     72.03782275	      0.00000000	      0.00000000
      2.68500000	    -20.99348894	     -4.98730106	     -2.00034904	     -0.33454746	      0.81151105	     -0.98489221	     29.42483553	     -5.39035667	     10.19251524	     90.88317416	      1.58621062	    -19.66842235	      0.00000000	      0.00000000	     64.20195018	     -6.80930190	     -3.64670361	     72.47244365	      1.26488276	     16.90071293	      0.00000000	      0.00000000	    -12.43145674	     -6.82730093	     10.26291203	     76.88002572	     -6.50794016	     20.71553516	     79.63831596	     76.87166610	      0.00000000	      0.00000000	     84.45468009	    -13.33900601	     35.87395654	     75.42335616	     69.42258584	      0.00000000	      0.00000000
      2.69000000	    -21.14169775	     -5.12316353	     -2.05519953	     -0.33439640	      0.81034929	     -0.98484012	     29.49677908	     -5.19796684	     10.19168278	     90.92808764	      1.58699451	    -19.39539495	      0.00000000	      0.00000000	     64.53450392	     -6.94443572	     -3.52824003	     72.79530982	      1.27051784	     16.85392198	      0.00000000	      0.00000000	    -12.29063622	     -6.67621268	     10.29350751	     76.88476370	     -6.55677423	     21.06665571	     79.59528074	     73.21321203	      0.00000000	      0.00000000	     84.34918380	    -13.49618975	     36.17831508	     75.68378197	     66.40950604	      0.00000000	      0.00000000
